<?xml version="1.0" standalone="no"?>
<!DOCTYPE svg PUBLIC "-//W3C//DTD SVG 20010904//EN"
 "http://www.w3.org/TR/2001/REC-SVG-20010904/DTD/svg10.dtd">
<svg version="1.0" xmlns="http://www.w3.org/2000/svg"
 width="512.000000pt" height="512.000000pt" viewBox="0 0 512.000000 512.000000"
 preserveAspectRatio="xMidYMid meet">
<metadata>
Created by potrace 1.14, written by Peter Selinger 2001-2017
</metadata>
<g transform="translate(0.000000,512.000000) scale(0.100000,-0.100000)"
fill="#000000" stroke="none">
<path d="M2622 4958 c-106 -16 -239 -108 -272 -187 -7 -17 -16 -31 -21 -31 -5
0 -9 -5 -9 -10 0 -6 -8 -23 -18 -38 -19 -28 -36 -53 -112 -177 -24 -38 -63
-100 -87 -137 -24 -37 -43 -72 -43 -78 0 -5 -3 -10 -8 -10 -4 0 -12 -9 -17
-20 -6 -11 -43 -73 -83 -137 -40 -65 -78 -127 -85 -138 -7 -11 -33 -52 -59
-91 -119 -181 -118 -353 1 -504 20 -24 41 -51 48 -60 54 -70 298 -376 303
-380 3 -3 21 -25 40 -50 36 -47 379 -479 408 -515 10 -11 35 -43 57 -70 22
-28 51 -59 64 -70 92 -76 215 -105 336 -79 26 6 149 52 445 169 167 66 378
148 570 222 107 41 222 88 255 103 78 37 138 97 178 179 31 64 32 69 31 196 0
71 -4 168 -8 215 -3 47 -8 112 -11 145 -3 33 -7 94 -10 135 -3 41 -8 102 -10
135 -3 33 -7 96 -10 140 -3 44 -7 108 -10 143 -3 34 -7 92 -10 130 -12 165
-18 198 -45 259 -34 74 -105 149 -171 180 -38 18 -315 99 -604 178 -27 7 -171
48 -320 90 -148 42 -301 85 -340 95 -38 10 -104 29 -145 40 -68 20 -97 26
-155 34 -11 1 -44 -1 -73 -6z"/>
<path d="M1525 2412 c-31 -5 -388 -88 -592 -137 -100 -25 -200 -53 -222 -65
-58 -29 -132 -107 -166 -176 l-30 -59 -3 -634 c-3 -615 -2 -637 18 -702 24
-79 77 -152 144 -196 26 -17 111 -57 189 -88 78 -31 156 -63 172 -70 241 -103
305 -116 430 -83 48 12 120 53 156 88 22 21 90 106 199 250 14 18 52 67 85
110 33 42 110 141 170 219 61 79 145 188 187 241 157 201 179 244 184 360 4
118 -30 201 -127 305 -21 22 -46 50 -56 61 -10 12 -56 63 -103 114 -47 51 -92
100 -100 110 -8 9 -51 56 -95 104 -166 182 -177 191 -261 224 -48 19 -138 31
-179 24z"/>
<path d="M3598 1781 c-108 -35 -145 -68 -256 -226 -39 -55 -81 -113 -92 -130
-12 -16 -75 -106 -140 -200 -65 -93 -124 -175 -129 -182 -31 -35 -92 -141
-106 -183 -24 -74 -22 -190 6 -250 29 -65 49 -93 142 -203 111 -133 164 -176
246 -202 59 -19 164 -22 216 -7 66 20 542 216 570 235 72 48 132 133 156 217
18 63 21 734 4 805 -19 75 -39 115 -85 168 -52 59 -98 86 -225 132 -126 46
-223 54 -307 26z"/>
</g>
</svg>
