<svg width="48" height="48" viewBox="0 0 48 48" fill="none" xmlns="http://www.w3.org/2000/svg">
<path d="M24 34.9574L22.26 33.4019C20.24 31.5871 18.57 30.0215 17.25 28.7053C15.93 27.389 14.88 26.2072 14.1 25.1598C13.32 24.1131 12.7752 23.1511 12.4656 22.2736C12.1552 21.3961 12 20.4986 12 19.5813C12 17.7066 12.63 16.1411 13.89 14.8846C15.15 13.6282 16.72 13 18.6 13C19.64 13 20.63 13.2194 21.57 13.6581C22.51 14.0969 23.32 14.7151 24 15.5128C24.68 14.7151 25.49 14.0969 26.43 13.6581C27.37 13.2194 28.36 13 29.4 13C31.28 13 32.85 13.6282 34.11 14.8846C35.37 16.1411 36 17.7066 36 19.5813C36 20.4986 35.8452 21.3961 35.5356 22.2736C35.2252 23.1511 34.68 24.1131 33.9 25.1598C33.12 26.2072 32.07 27.389 30.75 28.7053C29.43 30.0215 27.76 31.5871 25.74 33.4019L24 34.9574ZM24 31.7267C25.92 30.0115 27.5 28.5405 28.74 27.3136C29.98 26.0875 30.96 25.021 31.68 24.1139C32.4 23.2061 32.9 22.398 33.18 21.6896C33.46 20.9821 33.6 20.2793 33.6 19.5813C33.6 18.3847 33.2 17.3875 32.4 16.5898C31.6 15.792 30.6 15.3932 29.4 15.3932C28.46 15.3932 27.59 15.6572 26.79 16.1853C25.99 16.7142 25.44 17.3875 25.14 18.2052H22.86C22.56 17.3875 22.01 16.7142 21.21 16.1853C20.41 15.6572 19.54 15.3932 18.6 15.3932C17.4 15.3932 16.4 15.792 15.6 16.5898C14.8 17.3875 14.4 18.3847 14.4 19.5813C14.4 20.2793 14.54 20.9821 14.82 21.6896C15.1 22.398 15.6 23.2061 16.32 24.1139C17.04 25.021 18.02 26.0875 19.26 27.3136C20.5 28.5405 22.08 30.0115 24 31.7267Z" fill="#3E404C"/>
</svg>
