<svg width="28" height="26" viewBox="0 0 28 26" fill="none" xmlns="http://www.w3.org/2000/svg">
<g id="mdi:camera">
<path id="Vector" d="M4.75 4.32993H8.21875L10.5312 2.16504H17.4688L19.7812 4.32993H23.25C23.8633 4.32993 24.4515 4.55802 24.8852 4.96402C25.3189 5.37001 25.5625 5.92066 25.5625 6.49483V19.4842C25.5625 20.0584 25.3189 20.609 24.8852 21.015C24.4515 21.421 23.8633 21.6491 23.25 21.6491H4.75C4.13669 21.6491 3.54849 21.421 3.11482 21.015C2.68114 20.609 2.4375 20.0584 2.4375 19.4842V6.49483C2.4375 5.92066 2.68114 5.37001 3.11482 4.96402C3.54849 4.55802 4.13669 4.32993 4.75 4.32993ZM14 7.57727C12.4667 7.57727 10.9962 8.14749 9.91204 9.16248C8.82784 10.1775 8.21875 11.5541 8.21875 12.9895C8.21875 14.4249 8.82784 15.8015 9.91204 16.8165C10.9962 17.8315 12.4667 18.4017 14 18.4017C15.5333 18.4017 17.0038 17.8315 18.088 16.8165C19.1722 15.8015 19.7813 14.4249 19.7812 12.9895C19.7813 11.5541 19.1722 10.1775 18.088 9.16248C17.0038 8.14749 15.5333 7.57727 14 7.57727ZM14 9.74217C14.92 9.74217 15.8023 10.0843 16.4528 10.6933C17.1033 11.3023 17.4688 12.1283 17.4688 12.9895C17.4688 13.8508 17.1033 14.6767 16.4528 15.2857C15.8023 15.8947 14.92 16.2368 14 16.2368C13.08 16.2368 12.1977 15.8947 11.5472 15.2857C10.8967 14.6767 10.5312 13.8508 10.5312 12.9895C10.5312 12.1283 10.8967 11.3023 11.5472 10.6933C12.1977 10.0843 13.08 9.74217 14 9.74217Z" fill="#858899"/>
</g>
</svg>
