<svg width="48" height="48" viewBox="0 0 48 48" fill="none" xmlns="http://www.w3.org/2000/svg">
<g id="Notifications none" clip-path="url(#clip0_23_2279)">
<path id="Vector" d="M24 36C25.375 36 26.5 34.9385 26.5 33.641H21.5C21.5 34.9385 22.625 36 24 36ZM31.5 28.9231V23.0256C31.5 19.4046 29.4625 16.3733 25.875 15.5713V14.7692C25.875 13.7903 25.0375 13 24 13C22.9625 13 22.125 13.7903 22.125 14.7692V15.5713C18.55 16.3733 16.5 19.3928 16.5 23.0256V28.9231L14 31.2821V32.4615H34V31.2821L31.5 28.9231ZM29 30.1026H19V23.0256C19 20.1005 20.8875 17.7179 24 17.7179C27.1125 17.7179 29 20.1005 29 23.0256V30.1026Z" fill="#3E404C"/>
</g>
<defs>
<clipPath id="clip0_23_2279">
<rect width="48" height="48" fill="white"/>
</clipPath>
</defs>
</svg>
