<svg width="45" height="43" viewBox="0 0 45 43" fill="none" xmlns="http://www.w3.org/2000/svg">
<path fill-rule="evenodd" clip-rule="evenodd" d="M16.4625 12.5L18.75 10H26.25L28.5375 12.5H32.5C33.875 12.5 35 13.625 35 15V30C35 31.375 33.875 32.5 32.5 32.5H12.5C11.125 32.5 10 31.375 10 30V15C10 13.625 11.125 12.5 12.5 12.5H16.4625ZM16.25 22.5C16.25 25.95 19.05 28.75 22.5 28.75C25.95 28.75 28.75 25.95 28.75 22.5C28.75 19.05 25.95 16.25 22.5 16.25C19.05 16.25 16.25 19.05 16.25 22.5ZM26.5002 22.5002C26.5002 24.7093 24.7093 26.5002 22.5002 26.5002C20.291 26.5002 18.5002 24.7093 18.5002 22.5002C18.5002 20.291 20.291 18.5002 22.5002 18.5002C24.7093 18.5002 26.5002 20.291 26.5002 22.5002Z" fill="#1EBAD2"/>
</svg>
