<svg width="28" height="28" viewBox="0 0 28 28" fill="none" xmlns="http://www.w3.org/2000/svg">
<path fill-rule="evenodd" clip-rule="evenodd" d="M17 9H11L10.5 11H6V21H22V11H17.5L17 9Z" fill="white"/>
<path d="M11 9V8.35C10.7017 8.35 10.4417 8.55299 10.3694 8.84235L11 9ZM17 9L17.6306 8.84235C17.5583 8.55299 17.2983 8.35 17 8.35V9ZM10.5 11V11.65C10.7983 11.65 11.0583 11.447 11.1306 11.1576L10.5 11ZM6 11V10.35C5.64101 10.35 5.35 10.641 5.35 11H6ZM6 21H5.35C5.35 21.359 5.64101 21.65 6 21.65V21ZM22 21V21.65C22.359 21.65 22.65 21.359 22.65 21H22ZM22 11H22.65C22.65 10.641 22.359 10.35 22 10.35V11ZM17.5 11L16.8694 11.1576C16.9417 11.447 17.2017 11.65 17.5 11.65V11ZM11 9.65H17V8.35H11V9.65ZM11.1306 11.1576L11.6306 9.15765L10.3694 8.84235L9.86941 10.8424L11.1306 11.1576ZM6 11.65H10.5V10.35H6V11.65ZM6.65 21V11H5.35V21H6.65ZM22 20.35H6V21.65H22V20.35ZM21.35 11V21H22.65V11H21.35ZM17.5 11.65H22V10.35H17.5V11.65ZM16.3694 9.15765L16.8694 11.1576L18.1306 10.8424L17.6306 8.84235L16.3694 9.15765Z" fill="#252730"/>
<circle cx="14" cy="15.5" r="3" stroke="#1EBAD2" stroke-width="1.3"/>
</svg>
